<svg xmlns="http://www.w3.org/2000/svg" viewBox="0 0 94.13 61.04"><defs><style>.cls-1{fill:#545454;}.cls-2{fill:#fff;}</style></defs><title>Asset 107</title><g id="Layer_2" data-name="Layer 2"><g id="Layer_1-2" data-name="Layer 1"><path class="cls-1" d="M86.81,0H28.19a7.31,7.31,0,0,0-5.65,2.67L1.67,28a7.31,7.31,0,0,0,.4,9.75L22.58,58.83A7.34,7.34,0,0,0,27.82,61h59a7.31,7.31,0,0,0,7.32-7.31V7.31A7.31,7.31,0,0,0,86.81,0Z"/><path class="cls-2" d="M71.14,40.09l-9.57-9.57L71.14,21a2.57,2.57,0,0,0-3.63-3.63L58,26.9l-9.57-9.57A2.56,2.56,0,0,0,44.76,21l9.57,9.56-9.57,9.57a2.56,2.56,0,1,0,3.62,3.62L58,34.14l9.56,9.57a2.56,2.56,0,1,0,3.63-3.62Z"/></g></g></svg>