<svg xmlns="http://www.w3.org/2000/svg" viewBox="0 0 101.4 90.46"><defs><style>.cls-1{fill:#fff;}</style></defs><title>Asset 87</title><g id="Layer_2" data-name="Layer 2"><g id="Layer_1-2" data-name="Layer 1"><path class="cls-1" d="M101,61.85a8,8,0,0,0-5.73-5.38,8.11,8.11,0,0,0-7.17,1.38l-3.42,2.53q-4.35,3.21-8.71,6.4L75.7,67a10.56,10.56,0,0,1-4.84,2.38l-1,.13.14-.95c.82-5.42-1-9-5.46-10.47l-4.7-1.61c-7.35-2.53-15-5.14-22.53-7.32a25.08,25.08,0,0,0-22.94,4.23,5.31,5.31,0,0,1-2.89.93c-3.08.11-5.79.11-8.28,0A3.31,3.31,0,0,0,0,55.74V87.33a3.27,3.27,0,0,0,3.23,1.53c2.12-.06,4.26,0,6.34,0q2,0,4,0c2.44,0,2.89-.46,3-3,0-.31.06-.62.1-1l.15-1.36,4.19,1c2.54.57,5,1.14,7.54,1.69l4.72,1.07C37,88.07,40.9,89,44.75,89.63c14.79,2.55,28.77-.77,41.56-9.87,1.41-1,2.82-2.07,4.19-3.09,1.8-1.36,3.67-2.77,5.58-4.07a12.31,12.31,0,0,0,5.32-6.66V63l-.1-.25ZM12,84.25H4.64V58.93H12Zm84-17.5a7.3,7.3,0,0,1-1.33,1.17l-.17.13-3.2,2.39c-2.66,2-5.42,4.08-8.19,6a51,51,0,0,1-23.22,9.08,48,48,0,0,1-5.78.35,58.14,58.14,0,0,1-13.47-1.69c-5.14-1.23-10.37-2.4-15.44-3.54L18,79.06a4,4,0,0,1-.55-.19l-.7-.27,0-.45c0-.18,0-.36-.05-.54,0-.42-.08-.84-.08-1.29,0-1.81,0-3.63,0-5.45,0-3.68,0-7.48,0-11.21A3.86,3.86,0,0,1,18.41,56,21.28,21.28,0,0,1,37,53.67c6.13,1.9,12.32,4,18.29,6l7.24,2.43a6.71,6.71,0,0,1,1.63.72,3.68,3.68,0,0,1-2.22,6.75A7.94,7.94,0,0,1,60,69.14L49.73,65.8l-6.39-2.09a8.37,8.37,0,0,0-1.27-.35,2.22,2.22,0,0,0-1.4,4.17,6.89,6.89,0,0,0,1.26.5l.11,0,6.07,2q5.52,1.78,11,3.61c7,2.33,13.33,1.29,19.41-3.15,2.23-1.63,4.44-3.27,6.65-4.92l4.55-3.36.18-.13A8.85,8.85,0,0,1,91.6,61a3.69,3.69,0,0,1,4.53,1.25A3.5,3.5,0,0,1,96,66.75Z"/><path class="cls-1" d="M75.53,52.69A26.22,26.22,0,0,0,100.6,32.56l.57-2.25.23-.92V23.61l-.18-.82c-.15-.65-.29-1.3-.43-1.95A26.36,26.36,0,0,0,75,0a26.33,26.33,0,0,0-22.2,12.17,26.22,26.22,0,0,0-3.33,21A26.62,26.62,0,0,0,75.53,52.69ZM60,10.4A22,22,0,0,1,76.29,4.56a21.84,21.84,0,0,1-1.1,43.64h-.76c-10.59-.29-21.43-8.61-21.25-22A21.62,21.62,0,0,1,60,10.4Z"/><path class="cls-1" d="M71.31,27.83c.8.22,1.64.39,2.46.55s1.47.29,2.19.48a14.09,14.09,0,0,1,1.94.68L79,30l1.12.41-.89.79c-.23.2-.41.38-.56.52a3.48,3.48,0,0,1-.9.72,6.35,6.35,0,0,1-6.09-.17,3.08,3.08,0,0,0-1.39-.37A2,2,0,0,0,68.44,33c-.94,1.66.31,2.76,1.14,3.26a15.54,15.54,0,0,0,1.73.87l.82.39.31.15.08.34c.58,2.69,1.51,3.08,2.42,3.11s1.77-.22,2.62-3.31l.08-.31.3-.14.88-.41a11.4,11.4,0,0,0,1.71-.87,6,6,0,0,0,3.08-4.59,5.62,5.62,0,0,0-3.94-6.2,26.92,26.92,0,0,0-3.64-1c-.75-.17-1.5-.33-2.24-.53A16.62,16.62,0,0,1,72,23.16c-.25-.11-.5-.21-.76-.3l-.74-.28.35-.71c.07-.14.11-.25.15-.33a2,2,0,0,1,.29-.49,2.48,2.48,0,0,1,.7-.61,6.24,6.24,0,0,1,6.32,0,2.25,2.25,0,0,0,3.21-.69c.7-1.16.27-2.45-1.09-3.29-.59-.35-1.23-.65-1.86-.95l-.86-.41L77.4,15l-.05-.37c-.37-2.36-1.07-2.84-2.23-2.89s-2.09.41-2.54,2.93l-.06.32-.28.16c-.47.29-.92.54-1.37.79a15.94,15.94,0,0,0-2.4,1.53,5.71,5.71,0,0,0-1.18,7.67A6.66,6.66,0,0,0,71.31,27.83Z"/></g></g></svg>