<?xml version="1.0" standalone="no"?>
<!DOCTYPE svg PUBLIC "-//W3C//DTD SVG 20010904//EN"
 "http://www.w3.org/TR/2001/REC-SVG-20010904/DTD/svg10.dtd">
<svg version="1.0" xmlns="http://www.w3.org/2000/svg"
 width="612.000000pt" height="612.000000pt" viewBox="0 0 612.000000 612.000000"
 preserveAspectRatio="xMidYMid meet">

<g transform="translate(0.000000,612.000000) scale(0.100000,-0.100000)"
fill="#000000" stroke="none">
<path d="M1915 4799 c-92 -13 -246 -66 -324 -112 -328 -195 -514 -555 -514
-997 0 -111 5 -166 21 -236 118 -516 591 -1115 1385 -1752 130 -105 413 -316
479 -358 60 -38 109 -41 170 -10 112 55 545 389 813 627 689 612 1060 1169
1100 1654 13 149 -26 406 -84 553 -237 600 -870 813 -1439 485 -132 -77 -199
-129 -334 -264 l-127 -126 -133 131 c-318 314 -666 454 -1013 405z m276 -164
c257 -45 497 -197 735 -466 95 -108 176 -105 279 10 237 264 448 400 700 452
199 41 388 10 563 -92 79 -47 218 -189 268 -274 140 -241 187 -542 124 -800
-51 -214 -183 -463 -379 -715 -298 -384 -809 -850 -1353 -1234 l-68 -48 -67
48 c-373 264 -683 523 -978 819 -211 210 -319 334 -439 500 -271 377 -372 671
-337 979 64 562 463 907 952 821z"/>
</g>
</svg>
