<svg xmlns="http://www.w3.org/2000/svg" viewBox="0 0 125.54 125.59"><defs><style>.cls-1{fill:#707070;}</style></defs><title>Asset 105</title><g id="Layer_2" data-name="Layer 2"><g id="Layer_1-2" data-name="Layer 1"><path class="cls-1" d="M62.86,76.24a4.51,4.51,0,0,0-4.47,4.46V98.61a4.47,4.47,0,0,0,8.93,0V80.7A4.54,4.54,0,0,0,62.86,76.24Z"/><path class="cls-1" d="M94.92,125.59H30.62A30.72,30.72,0,0,1,0,94.85V53.64c0-8.48,5.1-18.86,11.87-24.16L41.76,6.11A28.84,28.84,0,0,1,52.41,1c9-2.29,18.83-.66,25.79,4.24l37.35,26.18-.26.25c6,5.67,10.25,14.85,10.25,22.77V94.91a30.7,30.7,0,0,1-30.62,30.68ZM60.65,6.16A27.42,27.42,0,0,0,53.93,7a23.39,23.39,0,0,0-8.39,4L15.67,34.34c-5.24,4.1-9.5,12.75-9.5,19.3V94.85a24.55,24.55,0,0,0,24.45,24.58h64.3a24.54,24.54,0,0,0,24.45-24.52V54.46c0-7-4.68-16-10.42-20l-3-2.1.07-.07-31.34-22A24.51,24.51,0,0,0,60.65,6.16Z"/></g></g></svg>