<svg xmlns="http://www.w3.org/2000/svg" viewBox="0 0 119.37 119.44"><defs><style>.cls-1{fill:#2d368f;}.cls-2{fill:#32b173;}</style></defs><title>Asset 94</title><g id="Layer_2" data-name="Layer 2"><g id="Layer_1-2" data-name="Layer 1"><path class="cls-1" d="M59.77,73.17a4.5,4.5,0,0,0-4.46,4.46V95.54a4.46,4.46,0,1,0,8.92,0V77.63A4.54,4.54,0,0,0,59.77,73.17Z"/><path class="cls-2" d="M107.63,28.84l.05-.06L73.34,4.71C66.86.15,58-1.08,50.09.93a26.13,26.13,0,0,0-9.52,4.54L10.69,28.84C4.76,33.48,0,43.05,0,50.56V91.78a27.64,27.64,0,0,0,27.54,27.66H91.83a27.61,27.61,0,0,0,27.54-27.6V51.39C119.37,43.34,114.2,33.42,107.63,28.84Zm-43.4,66.7a4.46,4.46,0,1,1-8.92,0V77.63a4.46,4.46,0,0,1,8.92,0Z"/></g></g></svg>