<svg xmlns="http://www.w3.org/2000/svg" viewBox="0 0 61.76 74.11"><defs><style>.cls-1{fill:#000000;}</style></defs><title>Asset 74</title><g id="Layer_2" data-name="Layer 2"><g id="Layer_1-2" data-name="Layer 1"><path class="cls-1" d="M52.5,26V21.62a21.62,21.62,0,0,0-43.24,0V26A15.45,15.45,0,0,0,0,40.15V58.67A15.46,15.46,0,0,0,15.44,74.11H46.32A15.46,15.46,0,0,0,61.76,58.67V40.15A15.45,15.45,0,0,0,52.5,26ZM15.44,21.62a15.44,15.44,0,0,1,30.88,0V24.7H15.44ZM55.59,58.67a9.27,9.27,0,0,1-9.27,9.27H15.44a9.26,9.26,0,0,1-9.26-9.27V40.15a9.26,9.26,0,0,1,9.26-9.27H46.32a9.27,9.27,0,0,1,9.27,9.27Z"/><path class="cls-1" d="M30.88,43.23a3.1,3.1,0,0,0-3.09,3.09V52.5a3.09,3.09,0,0,0,6.18,0V46.32A3.09,3.09,0,0,0,30.88,43.23Z"/></g></g></svg>