<svg xmlns="http://www.w3.org/2000/svg" viewBox="0 0 88.5 106.47"><defs><style>.cls-1{fill:#3a3a3a;}</style></defs><title>Asset 86</title><g id="Layer_2" data-name="Layer 2"><g id="Layer_1-2" data-name="Layer 1"><path class="cls-1" d="M22.66,15.67c-.39-10,2.1-14.6,8.38-15.5C38-.83,41.82,2.53,44.36,12c6.39,1.45,12.42,4,17.45,8.58A32.15,32.15,0,0,1,72,38.35a30.46,30.46,0,0,0,7.52,15c2,2.22,4,4.49,5.84,6.85,6.58,8.43,2.46,19.52-8,21.42q-31.2,5.67-62.45,11.09c-9.44,1.63-17-7.54-14.26-17A42,42,0,0,1,2.68,70c3.21-7,4-14.11,3.1-21.72-1.22-10.9,2.61-20.18,10.6-27.67C18.32,18.75,20.58,17.27,22.66,15.67ZM39.23,18A27.31,27.31,0,0,0,12,49.47a34.44,34.44,0,0,1-2,18.59C8.78,71.12,7.8,74.29,6.6,77.37a6.32,6.32,0,0,0,.82,6.27c2.11,3,5.11,3.27,8.45,2.65,6.82-1.27,13.65-2.43,20.48-3.63C49.24,80.39,62.13,78.18,75,75.84c7.5-1.35,9.44-6.84,4.63-12.68-.71-.86-1.42-1.71-2.18-2.51A46.76,46.76,0,0,1,65.37,38.07C62.69,26.05,51.58,18.11,39.23,18Zm-1.86-6.5C36.25,7,34.55,5.61,31.7,6.46,29,7.24,28.33,9.11,29.44,13Z"/><path class="cls-1" d="M36.72,106.47a13.27,13.27,0,0,1-12.25-7.42c-1-1.89-1.55-4,.83-5.35s3.45.28,4.46,2.06c1.88,3.34,4.63,5.17,8.56,4.39s6-3.32,6.44-7.18c.27-2.23,1.39-3.75,3.64-3.3,2.48.49,2.84,2.54,2.48,4.83A13.83,13.83,0,0,1,36.72,106.47Z"/></g></g></svg>