<svg xmlns="http://www.w3.org/2000/svg" viewBox="0 0 98.86 115.19"><defs><style>.cls-1{fill:#707070;}</style></defs><title>Asset 93</title><g id="Layer_2" data-name="Layer 2"><g id="Layer_1-2" data-name="Layer 1"><path class="cls-1" d="M78.05,57.54A28.9,28.9,0,0,1,49.59,86.45a28.84,28.84,0,0,1-.39-57.68C64.93,28.63,78,41.62,78.06,57.54ZM49.47,34.06A23.55,23.55,0,1,0,72.8,57.68,23.5,23.5,0,0,0,49.47,34.06Z"/><path class="cls-1" d="M47.91,107.33a49.83,49.83,0,0,1-20.36-5.11C-4.19,86.6-9.69,42.65,17.26,19.82c.56-.47,1.15-1.23,1.74-1.26,1,0,2.46.06,3,.71s.35,2.08.12,3.08c-.15.59-1,1-1.53,1.52C6.88,36.56,1.91,52.14,7.12,70.08S25,98.37,43.27,101.66a40,40,0,0,0,4.37.38,13.34,13.34,0,0,0,1.51-.1c-1.3-1.34-2.3-2.44-3.36-3.47-1.32-1.29-2-2.74-.6-4.26s2.91-.88,4.22.45Q53,98.34,56.62,102c1.56,1.56,1.62,3.09,0,4.67l-7.45,7.42c-1.28,1.28-2.74,1.63-4.05.24s-.9-2.73.34-3.89c.89-.83,1.87-1.56,2.8-2.33l-.38-.76Z"/><path class="cls-1" d="M49.68,13.85C50.93,15,52.22,16,53.41,17.21s1.38,2.64.11,3.88A2.41,2.41,0,0,1,49.83,21q-4-3.94-7.91-8a2.66,2.66,0,0,1,0-4.11c2.63-2.67,5.27-5.34,8-7.95a2.44,2.44,0,0,1,3.7-.07,2.45,2.45,0,0,1,0,3.71,39.74,39.74,0,0,1-3.29,2.82c4.92,1,9.31,1.38,13.4,2.72C81.81,16,93.56,28.34,97.58,47.12c4.06,19-1.63,35.17-16,48.22-.54.49-1.12,1.24-1.73,1.29-1,.07-2.56,0-3-.59s-.34-2.21-.11-3.28c.14-.58,1-1,1.56-1.49C92,78.53,96.91,62.93,91.63,45s-17.82-28.14-36-31.42c-1.79-.32-3.64-.3-5.46-.44l-.48.73Z"/><path class="cls-1" d="M52,44c1.61.77,3.11,1.4,4.52,2.18,1.57.87,2.64,2.16,1.54,4s-2.65,1.51-4.21.5c-2-1.29-4.16-2-6.43-.88a3.43,3.43,0,0,0-1.77,2c-.09.52.88,1.51,1.58,1.86,1.88,1,3.88,1.65,5.81,2.5,3,1.33,5.36,3.29,5.42,6.87s-2.12,5.6-5,7.18a3.39,3.39,0,0,0-1.41,2.33c-.19,1.72-.5,3.18-2.52,3.24s-2.8-1.38-2.68-3.25c.09-1.29-.42-1.85-1.63-2.26a15.62,15.62,0,0,1-3.65-1.89,2.43,2.43,0,0,1-.8-3.63c.88-1.35,2.1-1.36,3.63-.79a21,21,0,0,0,6.16,1.46c.85,0,1.79-1.33,2.68-2.06-.72-.78-1.31-1.82-2.2-2.29-2-1.05-4.2-1.74-6.24-2.74C42,57,40.22,54.85,40.31,51.64s2-5.29,4.73-6.58c1.13-.53,2-.93,1.82-2.42-.16-1.87.52-3.31,2.67-3.24S52,40.92,52,42.65c0,.41,0,.81.05,1.34Z"/></g></g></svg>