<svg xmlns="http://www.w3.org/2000/svg" viewBox="0 0 98.86 115.19"><defs><style>.cls-1{fill:#20bc5f;}.cls-2{fill:#2d368f;}</style></defs><title>Asset 104</title><g id="Layer_2" data-name="Layer 2"><g id="Layer_1-2" data-name="Layer 1"><path class="cls-1" d="M49.47,34.06A23.55,23.55,0,1,0,72.8,57.68,23.5,23.5,0,0,0,49.47,34.06ZM47.26,53.68c1.88,1,3.88,1.65,5.81,2.5,3,1.33,5.36,3.29,5.42,6.87s-2.12,5.6-5,7.18a3.39,3.39,0,0,0-1.41,2.33c-.19,1.72-.5,3.18-2.52,3.24s-2.8-1.38-2.68-3.25c.09-1.29-.42-1.85-1.63-2.26a15.29,15.29,0,0,1-3.65-1.9,2.42,2.42,0,0,1-.8-3.62c.88-1.35,2.1-1.36,3.63-.79a21,21,0,0,0,6.16,1.46c.85,0,1.79-1.33,2.68-2.06-.72-.78-1.31-1.82-2.2-2.29-2-1.05-4.2-1.74-6.24-2.74C42,57,40.22,54.85,40.31,51.64s2-5.29,4.73-6.58c1.13-.53,2-.93,1.82-2.42-.16-1.87.52-3.31,2.67-3.24S52,40.92,52,42.65c0,.41,0,.81.05,1.34h0c1.61.77,3.11,1.4,4.52,2.18,1.57.87,2.64,2.16,1.54,4s-2.65,1.51-4.21.5c-2-1.29-4.16-2-6.43-.88a3.43,3.43,0,0,0-1.77,2C45.59,52.34,46.56,53.33,47.26,53.68Z"/><path class="cls-1" d="M78.06,57.54C78,41.62,64.93,28.63,49.2,28.77A28.84,28.84,0,1,0,78.05,57.54ZM49.32,81.15A23.55,23.55,0,1,1,72.8,57.68,23.51,23.51,0,0,1,49.32,81.15Z"/><path class="cls-2" d="M49.41,94.66c-1.31-1.33-2.78-2-4.22-.45s-.72,3,.6,4.26c1.06,1,2.06,2.13,3.36,3.47a13.34,13.34,0,0,1-1.51.1,40,40,0,0,1-4.37-.38C25,98.37,12.34,88.06,7.12,70.08S6.88,36.56,20.58,23.87c.53-.5,1.38-.93,1.53-1.52.23-1,.41-2.44-.12-3.08s-2-.75-3-.71c-.59,0-1.18.79-1.74,1.26C-9.69,42.65-4.19,86.6,27.55,102.22a49.83,49.83,0,0,0,20.36,5.11h0l.38.76c-.93.77-1.91,1.5-2.8,2.33-1.24,1.16-1.56,2.6-.34,3.89s2.77,1,4.05-.24l7.45-7.42c1.59-1.58,1.53-3.11,0-4.67Q53,98.34,49.41,94.66Z"/><path class="cls-2" d="M63.65,10.07c-4.09-1.34-8.48-1.76-13.4-2.72a39.74,39.74,0,0,0,3.29-2.82,2.45,2.45,0,0,0,0-3.71,2.44,2.44,0,0,0-3.7.07c-2.69,2.61-5.33,5.28-8,8a2.66,2.66,0,0,0,0,4.11q3.9,4.05,7.91,8a2.41,2.41,0,0,0,3.69.14c1.27-1.24,1.12-2.67-.11-3.88S50.93,15,49.68,13.85h0l.48-.73c1.82.14,3.67.12,5.46.44,18.2,3.28,30.77,13.57,36,31.42S92,78.53,78.31,91.27c-.54.5-1.42.91-1.56,1.49-.23,1.07-.43,2.52.11,3.28s2,.66,3,.59c.61,0,1.19-.8,1.73-1.29,14.36-13,20-29.25,16-48.22C93.56,28.34,81.81,16,63.65,10.07Z"/><path class="cls-2" d="M47.45,49.78c2.27-1.13,4.43-.41,6.43.88,1.56,1,3.12,1.3,4.21-.5s0-3.12-1.54-4C55.14,45.39,53.64,44.76,52,44h0c0-.53-.05-.93-.05-1.34,0-1.73-.43-3.18-2.45-3.25s-2.83,1.37-2.67,3.24c.14,1.49-.69,1.89-1.82,2.42-2.74,1.29-4.64,3.41-4.73,6.58S42,57,44.8,58.35c2,1,4.23,1.69,6.24,2.74.89.47,1.48,1.51,2.2,2.29-.89.73-1.83,2.11-2.68,2.06A21,21,0,0,1,44.4,64c-1.53-.57-2.75-.56-3.63.79a2.42,2.42,0,0,0,.8,3.62,15.29,15.29,0,0,0,3.65,1.9c1.21.41,1.72,1,1.63,2.26-.12,1.87.53,3.32,2.68,3.25s2.33-1.52,2.52-3.24a3.39,3.39,0,0,1,1.41-2.33c2.91-1.58,5.09-3.66,5-7.18s-2.42-5.54-5.42-6.87c-1.93-.85-3.93-1.55-5.81-2.5-.7-.35-1.67-1.34-1.58-1.86A3.43,3.43,0,0,1,47.45,49.78Z"/></g></g></svg>