<svg xmlns="http://www.w3.org/2000/svg" viewBox="0 0 87.25 87.29"><defs><style>.cls-1{fill:#707070;}</style></defs><title>Asset 90</title><g id="Layer_2" data-name="Layer 2"><g id="Layer_1-2" data-name="Layer 1"><path class="cls-1" d="M31.35,0C20.86,0,12.81,2.06,7.44,7.44S0,20.86,0,31.35V55.9c0,8,1.2,14.49,4.09,19.53s7.52,8.42,13.67,10.19a48.19,48.19,0,0,0,13.59,1.67H55.9a48,48,0,0,0,13.59-1.67c6.15-1.72,10.71-5,13.68-10.19s4.08-11.57,4.08-19.53V31.35c0-10.49-2.06-18.58-7.44-23.91S66.44,0,56,0H31.35Zm0,81.92a50.4,50.4,0,0,1-9.81-.86c2-7.87,10.75-14.36,22.11-14.36s20.12,6.49,22.1,14.36a47.3,47.3,0,0,1-9.8.86H31.35Zm47.17-9.16a15.5,15.5,0,0,1-7.65,6.71C68.07,68.76,56.55,61.32,43.6,61.32S19.18,68.76,16.34,79.47a15.68,15.68,0,0,1-7.65-6.71C6.45,68.89,5.33,63.43,5.33,56V31.39c0-10,2-16.25,5.85-20.12S21.33,5.42,31.31,5.42H55.86c10,0,16.25,2,20.12,5.85s5.85,10.15,5.85,20.12V56c0,7.52-1.16,13-3.35,16.85ZM31.65,37.84a12,12,0,1,1,12,12A11.92,11.92,0,0,1,31.65,37.84Zm12-17.37A17.4,17.4,0,1,0,61,37.84,17.35,17.35,0,0,0,43.6,20.47Z"/></g></g></svg>