<svg xmlns="http://www.w3.org/2000/svg" viewBox="0 0 53.03 66.34"><defs><style>.cls-1{fill:#2d368f;}.cls-2{fill:#20bc5f;}</style></defs><title>Asset 110</title><g id="Layer_2" data-name="Layer 2"><g id="Layer_1-2" data-name="Layer 1"><path class="cls-1" d="M52.75,48.54a3.77,3.77,0,0,0-3.91-2.2c-1.3,0-2.58,0-3.93,0h-.55V28.69c0-2.59-1.35-4-3.91-4-2.8,0-5.38,0-7.86,0a3.53,3.53,0,0,0-3.87,3.89c0,2.34,0,4.67,0,7V46.36h-.95c-1.23,0-2.4,0-3.58,0-2,0-3.29.71-3.9,2.24A3.53,3.53,0,0,0,20,49.85a4.14,4.14,0,0,0,1.46,2.9l6.81,6.8,5.35,5.33a4.14,4.14,0,0,0,2.87,1.46,4.23,4.23,0,0,0,2.91-1.48l.43-.43h0q2.4-2.37,4.78-4.76l1.17-1.18,5.69-5.67A3.77,3.77,0,0,0,52.75,48.54Z"/><path class="cls-2" d="M21.11,42.33c2.64-.17,3.73-1.47,3.73-4.37V20.32h.65c1.43,0,2.79,0,4.15,0A3.64,3.64,0,0,0,33.45,18a3.68,3.68,0,0,0-1.15-4.12Q29.18,10.8,26.07,7.7l-6.3-6.26c-1.93-1.91-3.89-1.92-5.8,0L8.37,7l-.68.68-6.25,6.2A4.12,4.12,0,0,0,0,16.74a3.42,3.42,0,0,0,.31,1.41,3.79,3.79,0,0,0,3.86,2.18c1.39,0,2.76,0,4.16,0h.54v18c0,2.62,1.39,4,4,4h8.26Z"/></g></g></svg>