<svg xmlns="http://www.w3.org/2000/svg" viewBox="0 0 53.03 66.35"><defs><style>.cls-1{fill:#707070;stroke:#707070;stroke-miterlimit:10;stroke-width:0.5px;}</style></defs><title>Asset 109</title><g id="Layer_2" data-name="Layer 2"><g id="Layer_1-2" data-name="Layer 1"><path class="cls-1" d="M39.26,64.69,45,59l6.31-6.3a3.35,3.35,0,0,0-2.48-6c-1.33,0-2.64,0-4,0h-.7V28.69c0-2.46-1.23-3.71-3.66-3.72-2.81,0-5.38,0-7.86,0S29,26.24,29,28.6c0,2.77,0,5.54,0,8.31v9.71h-.79c-1.38,0-2.68,0-4,0a3.51,3.51,0,0,0-3.66,2.09,3.06,3.06,0,0,0-.24,1.17,3.94,3.94,0,0,0,1.38,2.72q3.42,3.39,6.82,6.8l5.34,5.33c1.87,1.86,3.55,1.86,5.43,0ZM30,57.87q-3.4-3.4-6.82-6.8c-.79-.78-.84-1.16-.66-1.61s.4-.76,1.64-.73,2.65,0,4.05,0h2.9V36.91q0-4.15,0-8.3c0-1.18.33-1.51,1.49-1.52,2.48,0,5,0,7.84,0,1.25,0,1.54.31,1.54,1.6q0,6.12,0,12.23v7.82H44.8c1.34,0,2.73,0,4.08,0,1.16,0,1.46.22,1.67.72s.13.83-.72,1.69c-2.11,2.09-4.22,4.2-6.32,6.3-1.92,1.91-3.83,3.83-5.75,5.73-1,1-1.39,1.06-2.42,0-1.79-1.77-3.56-3.55-5.34-5.33Z"/><path class="cls-1" d="M20.5,42.1c2.94,0,4.09-1.16,4.09-4.14V20.07h.85c1.46,0,2.83,0,4.2,0a3.41,3.41,0,0,0,3.58-2.16,3.45,3.45,0,0,0-1.1-3.85L25.9,7.88,19.59,1.63C17.75-.2,16-.21,14.14,1.6L7.86,7.84Q4.74,10.95,1.61,14A4,4,0,0,0,.25,16.75a3.14,3.14,0,0,0,.29,1.3,3.57,3.57,0,0,0,3.63,2c1.36,0,2.72,0,4.16,0h.79V38.34c0,2.48,1.27,3.75,3.77,3.77H20.5ZM11.29,24.49V17.91H8.34c-1.46,0-2.83,0-4.22,0-1.05,0-1.37-.25-1.59-.74s-.23-.76.62-1.6L9.4,9.37c2.09-2.09,4.18-4.16,6.28-6.24,1-1,1.36-1,2.37,0q3.16,3.12,6.3,6.26l6.23,6.18c.54.53.69.87.69,1.15a1.23,1.23,0,0,1-.08.38c-.2.51-.52.8-1.52.78-1.39,0-2.77,0-4.24,0h-3V38c0,1.78-.2,2-1.92,2H19.35c-2.12,0-4.31,0-6.46,0-1.3,0-1.6-.31-1.6-1.61,0-4.58,0-9.17,0-13.84Z"/></g></g></svg>