<svg xmlns="http://www.w3.org/2000/svg" viewBox="0 0 106.68 102.58"><defs><style>.cls-1{fill:#707070;}</style></defs><title>Asset 92</title><g id="Layer_2" data-name="Layer 2"><g id="Layer_1-2" data-name="Layer 1"><path class="cls-1" d="M53.19,102.57q-18.42,0-36.83,0C6.63,102.56,0,95.91,0,86.12Q0,62.2,0,38.26C0,23.77,10.59,13.07,24.94,13c4.3,0,8.6.07,12.9,0a8.1,8.1,0,0,0,3.52-.91C47.44,8.84,53.45,5.5,59.5,2.23c8.63-4.66,17.77-1.88,22.13,7,1.27,2.6,2.69,3.87,5.66,4.4,10.76,1.92,19.18,12,19.28,23,.16,16.94.12,33.87,0,50.8a15.37,15.37,0,0,1-15.31,15.13c-12.7.07-25.39,0-38.09,0ZM102.12,48.8c0-2.29,0-4.31,0-6.33-.2-7.12-4.71-11.57-11.77-11.58-24.43,0-48.85.1-73.28-.06-7.44,0-12.78,4.84-12.64,12.76.26,14.2.06,28.41.09,42.61a14.35,14.35,0,0,0,.36,3.53c1.34,5.21,5.53,8.32,11.31,8.33q37.16,0,74.31,0c.49,0,1,0,1.46-.07,4.5-.34,8.59-3.3,9.58-7.73.71-3.19.55-6.58.79-10-4.59,0-8.68.07-12.76,0a30.86,30.86,0,0,1-7-.64c-7.63-2-12.26-9.2-11.33-17.26A15.62,15.62,0,0,1,86.43,48.81c5.13-.07,10.24,0,15.68,0ZM24.66,26.45c7.05,0,13.43,0,19.82-.05A7.89,7.89,0,0,0,48,25.51c9-4.81,18-9.71,26.93-14.59.63-.34,1.24-.74,1.87-1.11-3.2-5.22-9.34-6.74-14.92-3.73C50,12.46,38.19,18.92,26.36,25.35c-.41.22-.78.5-1.7,1.1ZM102,53.35c-5.28,0-10.34-.05-15.38,0a11.16,11.16,0,0,0,.1,22.31c4.57,0,9.14,0,13.71,0a13.69,13.69,0,0,0,1.57-.16V53.35ZM56.69,26c0,.12.06.25.08.38H85.2C83.06,22,81.05,18,79,13.84L56.69,26ZM30.88,17.79c-10.52-2-22,3.4-24,10.75,2.78-.78,5.91-1.22,8.63-2.51,5.12-2.42,10-5.33,15.39-8.24ZM99.75,28.38c-1.39-4.51-8.44-10-13.57-10.18,1.28,2.57,2.47,5.07,3.77,7.51a2.19,2.19,0,0,0,1.32.72c2.86.69,5.73,1.32,8.48,1.95Z"/><path class="cls-1" d="M86.7,71.18a6.7,6.7,0,1,1,6.6-6.65,6.65,6.65,0,0,1-6.6,6.65Zm2.39-6.1c0-.33,0-.65,0-1-.84-.61-1.68-1.7-2.5-1.68s-1.84,1.16-2,2a1.78,1.78,0,0,0,2,2.22c.87-.1,1.65-1,2.46-1.56Z"/></g></g></svg>