<svg xmlns="http://www.w3.org/2000/svg" viewBox="0 0 98.14 96.68"><defs><style>.cls-1{fill:#fff;}</style></defs><title>Asset 89</title><g id="Layer_2" data-name="Layer 2"><g id="Layer_1-2" data-name="Layer 1"><path class="cls-1" d="M58.56,96.68H14.18a14.69,14.69,0,0,1-2.71-.24A14,14,0,0,1,0,82.25V24.53a16.22,16.22,0,0,1,13.88-16L31,6.11,48.66,3.58,67,1C68.4.76,69.79.54,71.17.33L73.47,0h1.62l.38.17A12.09,12.09,0,0,1,86.38,12.25c0,1.67-.06,4.35-.16,7,0,.43,0,.86,0,1.28a5.82,5.82,0,0,1,.13,1.63A14,14,0,0,1,97.82,33.36l.32,1.89V83.31l0,.26c-.09.36-.15.72-.22,1.09a17.35,17.35,0,0,1-.73,2.9,14,14,0,0,1-13.55,9.12ZM73.66,4.84l-1.75.27c-1.4.21-2.8.43-4.2.63L49.34,8.37,31.7,10.9,14.55,13.35A11.35,11.35,0,0,0,4.84,24.53v6.41q0,25.66,0,51.31a9.26,9.26,0,0,0,7.53,9.43,10.36,10.36,0,0,0,1.82.16h69.4a9.23,9.23,0,0,0,9-6,13.56,13.56,0,0,0,.52-2.13c.06-.33.12-.66.19-1V35.49l-.23-1.18a9.23,9.23,0,0,0-9.29-7.58H11.23a2.42,2.42,0,1,1,0-4.83h41q14.53,0,29.09,0c0-.89.06-1.87.1-2.87.1-2.53.19-5.13.16-6.65A7.29,7.29,0,0,0,74.78,5a3,3,0,0,1-.73-.13Zm1.66,62.72h-.08a11.16,11.16,0,1,1,.16-22.31h.1a10.84,10.84,0,0,1,7.69,3.32,11.15,11.15,0,0,1-7.87,19Zm0-4.83h0a6.42,6.42,0,0,0,6.26-6.29A6.34,6.34,0,0,0,79.74,52a6.06,6.06,0,0,0-4.28-1.88H75.4a6.33,6.33,0,1,0-.13,12.65Z"/></g></g></svg>