<svg xmlns="http://www.w3.org/2000/svg" viewBox="0 0 106.68 102.58"><defs><style>.cls-1{fill:#20bc5f;}.cls-2{fill:#2d368f;}.cls-3{fill:#707070;}</style></defs><title>Asset 102</title><g id="Layer_2" data-name="Layer 2"><g id="Layer_1-2" data-name="Layer 1"><path class="cls-1" d="M91.27,26.43c2.86.69,5.73,1.32,8.48,1.95-1.39-4.51-8.44-10-13.57-10.18,1.28,2.57,2.47,5.07,3.77,7.51A2.19,2.19,0,0,0,91.27,26.43Z"/><path class="cls-2" d="M89.56,80.2a30.86,30.86,0,0,1-7-.64c-7.63-2-12.26-9.2-11.33-17.26A15.62,15.62,0,0,1,86.43,48.81c5.13-.07,10.24,0,15.68,0h0c0-2.29,0-4.31,0-6.33-.2-7.12-4.71-11.57-11.77-11.58-24.43,0-48.85.1-73.28-.06-7.44,0-12.78,4.84-12.64,12.76.26,14.2.06,28.41.09,42.61a14.35,14.35,0,0,0,.36,3.53c1.34,5.21,5.53,8.32,11.31,8.33q37.16,0,74.31,0c.49,0,1,0,1.46-.07,4.5-.34,8.59-3.3,9.58-7.73.71-3.19.55-6.58.79-10C97.73,80.22,93.64,80.29,89.56,80.2Z"/><path class="cls-1" d="M56.77,26.33H85.2C83.06,22,81.05,18,79,13.84L56.7,26C56.72,26.07,56.75,26.2,56.77,26.33Z"/><path class="cls-1" d="M30.88,17.79h0c-10.52-2-22,3.4-24,10.75,2.78-.78,5.91-1.22,8.63-2.51C20.61,23.61,25.51,20.7,30.88,17.79Z"/><path class="cls-1" d="M24.67,26.45c7,0,13.42,0,19.81-.05A7.89,7.89,0,0,0,48,25.51c9-4.81,18-9.71,26.93-14.59.63-.34,1.24-.74,1.87-1.11-3.2-5.22-9.34-6.74-14.92-3.73C50,12.46,38.19,18.92,26.36,25.35,26,25.57,25.58,25.85,24.67,26.45Z"/><path class="cls-1" d="M75.52,64.56a11.15,11.15,0,0,0,11.2,11.1c4.57.06,9.14,0,13.71,0a13.69,13.69,0,0,0,1.57-.16V53.35h0c-5.28,0-10.34-.05-15.38,0A11.1,11.1,0,0,0,75.52,64.56Zm17.78,0a6.66,6.66,0,0,1-6.6,6.65h0a6.7,6.7,0,1,1,6.6-6.65Z"/><path class="cls-2" d="M84.59,64.42a1.78,1.78,0,0,0,2,2.22c.87-.1,1.65-1,2.46-1.56h0c0-.33,0-.65,0-1-.84-.61-1.68-1.7-2.5-1.68S84.8,63.59,84.59,64.42Z"/><polygon class="cls-3" points="56.7 25.95 56.7 25.95 56.7 25.95 56.7 25.95"/><path class="cls-2" d="M87.29,13.61c-3-.53-4.39-1.8-5.66-4.4C77.27.35,68.13-2.43,59.5,2.23c-6,3.27-12.06,6.61-18.14,9.82a8.1,8.1,0,0,1-3.52.91c-4.3.11-8.6,0-12.9,0C10.59,13.07,0,23.77,0,38.26Q0,62.19,0,86.12c0,9.79,6.62,16.44,16.35,16.45q18.41,0,36.83,0h0c12.7,0,25.4,0,38.09,0a15.37,15.37,0,0,0,15.31-15.13c.1-16.93.14-33.86,0-50.8C106.47,25.6,98.05,15.53,87.29,13.61ZM99.75,28.38c-2.75-.63-5.62-1.26-8.48-1.95A2.19,2.19,0,0,1,90,25.71c-1.3-2.44-2.49-4.94-3.77-7.51C91.31,18.33,98.36,23.87,99.75,28.38ZM79,13.84c2,4.13,4.06,8.19,6.2,12.49H56.77c0-.13-.05-.26-.07-.38h0ZM61.89,6.08c5.58-3,11.72-1.49,14.92,3.73-.63.37-1.24.77-1.87,1.11C66,15.8,57,20.7,48,25.51a7.89,7.89,0,0,1-3.53.89c-6.39.09-12.77.05-19.81.05h0c.91-.6,1.28-.88,1.69-1.1C38.19,18.92,50,12.46,61.89,6.08Zm-31,11.71h0C25.51,20.7,20.61,23.61,15.49,26c-2.72,1.29-5.85,1.73-8.63,2.51C8.84,21.19,20.36,15.76,30.88,17.79Zm70.65,72.48c-1,4.43-5.08,7.39-9.58,7.73-.49,0-1,.07-1.46.07q-37.14,0-74.31,0c-5.78,0-10-3.12-11.31-8.33a14.35,14.35,0,0,1-.36-3.53c0-14.2.17-28.41-.09-42.61-.14-7.92,5.2-12.81,12.64-12.76,24.43.16,48.85.05,73.28.06,7.06,0,11.57,4.46,11.77,11.58,0,2,0,4,0,6.33h0c-5.44,0-10.55-.06-15.68,0A15.62,15.62,0,0,0,71.22,62.3c-.93,8.06,3.7,15.28,11.33,17.26a30.86,30.86,0,0,0,7,.64c4.08.09,8.17,0,12.76,0C102.08,83.69,102.24,87.08,101.53,90.27ZM102,53.35h0V75.51a13.69,13.69,0,0,1-1.57.16c-4.57,0-9.14,0-13.71,0a11.15,11.15,0,1,1-.1-22.3C91.66,53.3,96.72,53.35,102,53.35Z"/><polygon class="cls-3" points="24.66 26.45 24.67 26.45 24.66 26.45 24.66 26.45"/><path class="cls-2" d="M80,64.46a6.67,6.67,0,1,0,6.6-6.68A6.65,6.65,0,0,0,80,64.46Zm9.17-.35c0,.32,0,.64,0,1h0c-.81.55-1.59,1.46-2.46,1.56a1.78,1.78,0,0,1-2-2.22c.21-.83,1.32-2,2-2S88.3,63.5,89.14,64.11Z"/><polygon class="cls-2" points="86.7 71.18 86.7 71.18 86.7 71.18 86.7 71.18"/></g></g></svg>